<svg width="21" height="19" viewBox="0 0 21 19" fill="none" xmlns="http://www.w3.org/2000/svg">
<path fill-rule="evenodd" clip-rule="evenodd" d="M0.00209634 9.43958C-0.000697454 9.43483 -0.000698857 9.42892 0.0020926 9.42412L5.28261 0.40209C5.28536 0.397411 5.2904 0.394531 5.29581 0.394531H15.7621C15.7675 0.394531 15.7726 0.397435 15.7753 0.402156L20.9979 9.4242C21.0007 9.42892 21.0007 9.43479 20.9979 9.4395L15.7753 18.4514C15.7726 18.4561 15.7675 18.459 15.7621 18.459H5.29581C5.2904 18.459 5.28536 18.4562 5.28261 18.4515L0.00209634 9.43958ZM15.3652 9.42679C15.3652 12.1128 13.1877 14.2903 10.5016 14.2903C7.81561 14.2903 5.63813 12.1128 5.63813 9.42679C5.63813 6.74072 7.81561 4.56328 10.5016 4.56328C13.1877 4.56328 15.3652 6.74072 15.3652 9.42679Z" fill="white"/>
</svg>
